<?xml version="1.0" standalone="no"?>
<!DOCTYPE svg PUBLIC "-//W3C//DTD SVG 20010904//EN"
 "http://www.w3.org/TR/2001/REC-SVG-20010904/DTD/svg10.dtd">
<svg version="1.0" xmlns="http://www.w3.org/2000/svg"
 width="512.000000pt" height="512.000000pt" viewBox="0 0 512.000000 512.000000"
 preserveAspectRatio="xMidYMid meet">
<metadata>
Created by potrace 1.14, written by Peter Selinger 2001-2017
</metadata>
<g transform="translate(0.000000,512.000000) scale(0.100000,-0.100000)"
fill="#000000" stroke="none">
<path d="M0 2560 l0 -2560 2560 0 2560 0 0 2560 0 2560 -2560 0 -2560 0 0
-2560z m2765 1995 c141 -9 328 -48 483 -101 185 -63 326 -141 482 -267 109
-88 220 -198 213 -210 -3 -6 -1 -7 4 -4 12 8 125 -123 196 -224 114 -165 256
-442 243 -475 -3 -8 -1 -14 4 -14 22 0 8 -19 -22 -30 -36 -14 -234 -24 -251
-13 -6 4 -25 8 -41 9 -58 4 -162 44 -227 85 -68 43 -141 117 -132 133 3 5 2 6
-4 3 -5 -4 -23 10 -39 30 -52 66 -225 232 -275 265 -27 17 -46 35 -42 41 3 6
1 7 -5 3 -6 -4 -28 4 -49 17 -171 106 -451 168 -721 160 -191 -6 -212 -7 -212
-15 0 -17 -39 7 -54 33 -23 39 -36 197 -16 184 10 -6 11 -4 4 6 -11 18 -7 51
12 112 10 28 20 45 26 41 7 -4 8 -2 4 4 -17 28 64 124 156 187 27 17 46 34 43
36 -2 3 10 6 27 7 18 2 34 4 36 6 2 2 15 3 30 1 15 -2 72 -7 127 -10z m-687
-311 c2 -39 -2 -56 -17 -75 -16 -20 -23 -22 -38 -13 -28 17 -29 83 -2 118 33
41 53 31 57 -30z m127 -22 c-3 -3 -11 0 -18 7 -9 10 -8 11 6 5 10 -3 15 -9 12
-12z m-1015 -672 c0 -5 -5 -10 -11 -10 -5 0 -7 5 -4 10 3 6 8 10 11 10 2 0 4
-4 4 -10z m1513 -32 c18 -24 18 -30 7 -58 -22 -53 -74 -66 -110 -28 -28 30
-25 54 10 89 36 36 65 35 93 -3z m-1634 -120 c12 -35 13 -123 2 -152 -5 -13
-19 -20 -39 -22 -17 -1 -31 1 -30 4 1 4 -2 15 -7 25 -14 33 -1 145 20 165 25
24 41 18 54 -20z m361 -58 c65 -33 102 -74 125 -141 26 -71 18 -198 -12 -210
-5 -2 -19 -18 -31 -36 -24 -34 -92 -63 -146 -63 -100 1 -206 123 -206 237 0
103 43 178 124 217 65 32 75 32 146 -4z m1489 -124 c89 -23 144 -52 201 -107
66 -64 89 -115 90 -201 0 -43 -4 -70 -12 -75 -7 -4 -46 -8 -85 -8 -71 0 -73 1
-73 24 0 14 -7 51 -16 83 -32 114 -129 188 -244 188 -37 0 -37 -1 -36 -37 0
-22 -4 -37 -9 -36 -6 1 -9 -12 -7 -31 2 -17 -1 -47 -6 -66 -10 -34 -10 -33
-11 21 -1 65 -25 103 -77 125 -111 47 -326 -27 -442 -150 -61 -65 -157 -238
-147 -263 3 -8 -2 -40 -10 -71 -11 -46 -12 -76 -5 -152 20 -192 58 -259 178
-317 44 -20 62 -24 103 -19 80 10 129 23 209 56 112 45 129 37 62 -30 -29 -30
-57 -44 -125 -65 -47 -14 -89 -30 -92 -36 -10 -15 46 -32 70 -20 11 5 58 17
105 25 103 19 249 89 306 146 87 87 141 217 98 234 -10 4 -101 7 -203 7 l-186
0 -24 -28 c-12 -15 -32 -38 -42 -50 -16 -20 -22 -21 -44 -11 -31 14 -32 44 -8
141 l17 67 322 0 c177 0 336 -3 354 -6 30 -7 32 -9 27 -43 -20 -146 -137 -309
-297 -418 -129 -87 -300 -130 -410 -103 -25 6 -56 12 -70 15 -14 2 -43 6 -65
9 -75 12 -224 55 -272 80 -68 34 -129 100 -170 184 -32 64 -37 83 -41 172 -8
166 43 319 154 467 117 156 335 272 575 307 103 15 284 11 358 -8z m-245 -198
c9 -13 16 -43 16 -71 0 -28 4 -46 9 -42 14 8 -27 -135 -49 -170 -26 -42 -93
-78 -146 -79 -34 -1 -49 5 -70 26 -23 22 -27 34 -26 82 1 112 55 225 124 259
18 9 54 17 80 17 37 0 50 -5 62 -22z m295 -210 c-12 -20 -14 -21 -17 -5 -2 10
2 25 9 34 18 21 23 0 8 -29z m258 6 c-9 -9 -28 6 -21 18 4 6 10 6 17 -1 6 -6
8 -13 4 -17z m1113 6 c15 -15 20 -32 19 -67 l-1 -48 -10 38 c-6 22 -22 47 -39
59 -16 12 -29 25 -29 30 0 16 40 8 60 -12z m-160 -150 c0 -31 5 -43 24 -55 51
-34 111 30 71 75 -16 17 -16 20 -2 20 19 0 47 -26 47 -43 -1 -7 -9 -28 -18
-47 -21 -42 -60 -59 -97 -42 -32 15 -60 71 -51 106 10 40 26 31 26 -14z m-975
-161 c-4 -5 -12 -9 -18 -8 -9 0 -8 2 1 6 6 2 9 10 6 15 -4 7 -2 8 5 4 6 -4 9
-12 6 -17z m-273 -121 c-15 -15 -26 -4 -18 18 5 13 9 15 18 6 9 -9 9 -15 0
-24z m-572 -8 c0 -5 -7 -10 -15 -10 -8 0 -15 5 -15 10 0 6 7 10 15 10 8 0 15
-4 15 -10z m402 -83 c13 -20 9 -64 -6 -76 -10 -9 -36 -10 -86 -5 -71 7 -71 7
-65 33 3 14 13 37 22 50 14 22 20 23 71 17 31 -4 60 -12 64 -19z m1484 -358
c70 -13 122 -42 130 -73 17 -69 -159 -416 -308 -608 -341 -438 -909 -718
-1453 -718 -126 0 -197 18 -352 90 -309 143 -545 433 -547 668 -1 69 1 75 28
99 26 22 36 25 77 20 26 -3 87 -22 136 -43 228 -94 383 -127 608 -127 212 1
297 18 432 87 184 94 257 148 403 296 202 205 311 271 515 308 71 14 260 14
331 1z m-2618 -177 c2 -14 -2 -22 -11 -22 -19 0 -40 26 -32 40 11 18 40 6 43
-18z m552 -57 c6 -19 9 -41 7 -48 -3 -6 -6 -2 -6 9 -1 12 -9 32 -20 45 -18 22
-19 22 -45 6 -40 -27 -57 -61 -63 -127 -5 -56 -4 -60 16 -60 13 0 21 7 22 18
1 16 2 16 6 0 4 -17 6 -17 31 0 26 16 26 16 13 -1 -8 -10 -28 -25 -43 -33 -47
-25 -60 -6 -57 85 3 84 16 113 63 142 37 23 60 12 76 -36z m-20 -66 c0 -5 -11
-27 -25 -47 -14 -21 -25 -30 -25 -21 0 9 7 22 15 29 8 7 12 17 8 23 -4 6 -1 7
7 2 10 -6 12 -4 7 8 -3 10 -2 17 3 17 6 0 10 -5 10 -11z m310 -30 c36 -67 -32
-147 -74 -87 -17 23 -21 75 -8 94 8 14 41 22 60 16 7 -2 17 -13 22 -23z m-21
-236 c1 -21 -17 -15 -24 7 -9 27 6 50 16 24 4 -10 8 -25 8 -31z m-673 -427 c6
-25 -1 -46 -15 -46 -11 0 -29 43 -24 58 8 21 32 13 39 -12z"/>
<path d="M2720 4520 c-9 -6 -10 -10 -3 -10 6 0 15 5 18 10 8 12 4 12 -15 0z"/>
<path d="M2528 4383 c7 -3 16 -2 19 1 4 3 -2 6 -13 5 -11 0 -14 -3 -6 -6z"/>
<path d="M3200 4379 c0 -5 5 -7 10 -4 6 3 10 8 10 11 0 2 -4 4 -10 4 -5 0 -10
-5 -10 -11z"/>
<path d="M2390 4370 c-9 -6 -10 -10 -3 -10 6 0 15 5 18 10 8 12 4 12 -15 0z"/>
<path d="M2917 4369 c7 -7 15 -10 18 -7 3 3 -2 9 -12 12 -14 6 -15 5 -6 -5z"/>
<path d="M2769 4323 c-13 -16 -12 -17 4 -4 16 13 21 21 13 21 -2 0 -10 -8 -17
-17z"/>
<path d="M3410 4330 c-9 -6 -10 -10 -3 -10 6 0 15 5 18 10 8 12 4 12 -15 0z"/>
<path d="M3695 4190 c3 -5 8 -10 11 -10 2 0 4 5 4 10 0 6 -5 10 -11 10 -5 0
-7 -4 -4 -10z"/>
<path d="M3820 4040 c-9 -6 -10 -10 -3 -10 6 0 15 5 18 10 8 12 4 12 -15 0z"/>
<path d="M2340 3996 c0 -2 7 -7 16 -10 8 -3 12 -2 9 4 -6 10 -25 14 -25 6z"/>
<path d="M3705 3991 c-3 -5 -2 -12 3 -15 5 -3 9 1 9 9 0 17 -3 19 -12 6z"/>
<path d="M3901 3874 c0 -11 3 -14 6 -6 3 7 2 16 -1 19 -3 4 -6 -2 -5 -13z"/>
<path d="M2037 4254 c-4 -4 -7 -20 -7 -35 0 -15 -6 -29 -12 -32 -9 -3 -6 -7 6
-12 24 -10 48 20 44 54 -3 25 -19 37 -31 25z"/>
<path d="M2616 3511 c-25 -28 -17 -64 18 -76 25 -8 31 -6 52 18 28 33 29 40 8
62 -22 21 -38 14 -42 -18 -2 -15 -8 -27 -14 -27 -6 0 -8 12 -4 30 7 35 5 36
-18 11z"/>
<path d="M1013 3365 c0 -27 2 -38 4 -22 2 15 2 37 0 50 -2 12 -4 0 -4 -28z"/>
<path d="M1249 3283 c-13 -16 -12 -17 4 -4 9 7 17 15 17 17 0 8 -8 3 -21 -13z"/>
<path d="M1204 3235 c-20 -31 -31 -105 -15 -105 13 0 18 12 24 60 3 19 8 43
12 53 10 25 -2 21 -21 -8z"/>
<path d="M2590 2944 c-40 -16 -80 -69 -80 -105 0 -13 10 -41 23 -61 l22 -38
35 19 c42 22 60 55 67 125 7 67 -11 82 -67 60z"/>
<path d="M2829 1207 c-51 -34 -61 -63 -45 -127 17 -64 65 -116 117 -125 70
-13 130 73 104 149 -18 52 -42 84 -78 106 -41 26 -57 25 -98 -3z m148 -153 c3
-8 -2 -23 -11 -32 -14 -15 -18 -15 -31 -1 -9 9 -13 23 -9 32 8 21 43 22 51 1z"/>
<path d="M2417 1618 c-17 -9 -23 -54 -9 -74 4 -6 15 -13 25 -17 22 -8 42 31
33 66 -7 29 -26 39 -49 25z"/>
</g>
</svg>
